<svg width="40" height="40" viewBox="0 0 40 40" fill="none" xmlns="http://www.w3.org/2000/svg">
<path d="M19.9997 3.33325C16.7033 3.33325 13.481 4.31073 10.7402 6.14209C7.99936 7.97345 5.86315 10.5764 4.60169 13.6219C3.34023 16.6673 3.01017 20.0184 3.65326 23.2514C4.29635 26.4844 5.88369 29.4542 8.21457 31.785C10.5454 34.1159 13.5152 35.7033 16.7482 36.3463C19.9812 36.9894 23.3323 36.6594 26.3777 35.3979C29.4232 34.1365 32.0261 32.0002 33.8575 29.2594C35.6889 26.5186 36.6663 23.2963 36.6663 19.9999C36.6663 17.8112 36.2353 15.644 35.3977 13.6219C34.5601 11.5998 33.3324 9.76245 31.7848 8.21481C30.2372 6.66716 28.3998 5.4395 26.3777 4.60193C24.3556 3.76435 22.1884 3.33325 19.9997 3.33325ZM19.9997 29.9999C19.67 29.9999 19.3478 29.9022 19.0737 29.719C18.7996 29.5359 18.586 29.2756 18.4599 28.9711C18.3337 28.6665 18.3007 28.3314 18.365 28.0081C18.4293 27.6848 18.5881 27.3878 18.8212 27.1547C19.0543 26.9217 19.3512 26.7629 19.6745 26.6986C19.9978 26.6343 20.3329 26.6673 20.6375 26.7935C20.942 26.9196 21.2023 27.1332 21.3855 27.4073C21.5686 27.6814 21.6663 28.0036 21.6663 28.3333C21.6663 28.7753 21.4908 29.1992 21.1782 29.5118C20.8656 29.8243 20.4417 29.9999 19.9997 29.9999ZM21.6663 21.3999V23.3333C21.6663 23.7753 21.4908 24.1992 21.1782 24.5118C20.8656 24.8243 20.4417 24.9999 19.9997 24.9999C19.5577 24.9999 19.1337 24.8243 18.8212 24.5118C18.5086 24.1992 18.333 23.7753 18.333 23.3333V19.9999C18.333 19.5579 18.5086 19.134 18.8212 18.8214C19.1337 18.5088 19.5577 18.3333 19.9997 18.3333C20.4941 18.3333 20.9775 18.1866 21.3886 17.9119C21.7997 17.6372 22.1202 17.2468 22.3094 16.79C22.4986 16.3331 22.5481 15.8305 22.4516 15.3455C22.3552 14.8606 22.1171 14.4151 21.7674 14.0655C21.4178 13.7159 20.9724 13.4778 20.4874 13.3813C20.0025 13.2848 19.4998 13.3343 19.043 13.5236C18.5862 13.7128 18.1957 14.0332 17.921 14.4443C17.6463 14.8555 17.4997 15.3388 17.4997 15.8333C17.4997 16.2753 17.3241 16.6992 17.0115 17.0118C16.699 17.3243 16.275 17.4999 15.833 17.4999C15.391 17.4999 14.9671 17.3243 14.6545 17.0118C14.3419 16.6992 14.1663 16.2753 14.1663 15.8333C14.162 14.7504 14.4591 13.6877 15.0245 12.7642C15.5898 11.8407 16.401 11.0927 17.3674 10.6041C18.3337 10.1155 19.417 9.90546 20.4959 9.99758C21.5748 10.0897 22.6068 10.4803 23.4763 11.1257C24.3458 11.771 25.0185 12.6457 25.4191 13.6517C25.8197 14.6577 25.9324 15.7554 25.7445 16.8218C25.5566 17.8882 25.0757 18.8813 24.3554 19.6898C23.6351 20.4984 22.704 21.0905 21.6663 21.3999Z" fill="black"/>
</svg>
